<svg xmlns="http://www.w3.org/2000/svg" viewBox="0 0 160 40" fill="#000">
  <path d="M26.4 31.4H6.8L24.2 8.6h-17V2h22.6l-17.4 22.8H30v6.6h-3.6zM49.8 32.2c-8.6 0-15.6-6.8-15.6-15.4S41.2 1.4 49.8 1.4s15.6 6.8 15.6 15.4-7 15.4-15.6 15.4zm0-24.4c-5 0-9 4-9 9s4 9 9 9 9-4 9-9-4-9-9-9zM84.6 32.2c-8.6 0-15.6-6.8-15.6-15.4S76 1.4 84.6 1.4s15.6 6.8 15.6 15.4-7 15.4-15.6 15.4zm0-24.4c-5 0-9 4-9 9s4 9 9 9 9-4 9-9-4-9-9-9zM140.4 2c-4.8 0-8.8 2.4-11.2 6-2.4-3.6-6.4-6-11.2-6-7.2 0-13 5.8-13 13v16.4h6.6V15c0-3.6 2.8-6.4 6.4-6.4s6.4 2.8 6.4 6.4v16.4h6.6V15c0-3.6 2.8-6.4 6.4-6.4s6.4 2.8 6.4 6.4v16.4h6.6V15c0-7.2-5.8-13-13-13z"/>
</svg>