<svg xmlns="http://www.w3.org/2000/svg" viewBox="0 0 200 60" width="200" height="60"><g transform="translate(10,5)" fill="#000"><path d="M27.2 40.8l2.2.1h33l-.1-2.2c-.3-3.6-2.9-6.3-6.5-6.5l-2.2-.1H34.2l26.4-26.4-.1-2.2A6.66 6.66 0 0 0 54.2 0l-2.2-.1H19l.1 2.2a6.83 6.83 0 0 0 6.5 6.5l2.2.1h19.8L21.2 35.1l.1 2.2a6.73 6.73 0 0 0 6.5 6.5z"/><path d="M80.5 3.5a22 22 0 1 0 0 31.1 22 22 0 0 0 0-31.1zm-2.3 17.6a13.2 13.2 0 1 1-3.9-9.3 13.1 13.1 0 0 1 3.9 9.3z"/><path d="M120.5 3.5a22 22 0 1 0 0 31.1 22 22 0 0 0 0-31.1zm-2.3 17.6a13.2 13.2 0 1 1-3.9-9.3 13.1 13.1 0 0 1 3.9 9.3z"/><path d="M157.2 12.6a9.5 9.5 0 0 1 1.1 4.4l.1 2.2v15.4l.1 2.2a6.77 6.77 0 0 0 6.5 6.5l2.2.1V19.2l.1-2.2a9.6 9.6 0 0 1 1.1-4.4 8.8 8.8 0 0 1 15.2 0 9.65 9.65 0 0 1 1.1 4.4l.1 2.2v15.4l.1 2.2a6.74 6.74 0 0 0 6.5 6.5l2.2.1V17.6a17.6 17.6 0 0 0-30.8-11.6A17.6 17.6 0 0 0 140.3 0v44l2.2-.1c3.7-.2 6.3-2.8 6.5-6.5l.1-2.2V19.8l.1-2.2a9.6 9.6 0 0 1 1.1-4.4 8.8 8.8 0 0 1 15.2 0z" transform="translate(-8,3)"/></g></svg>